<svg viewBox="0 0 12214.1462 1533.0000" xmlns="http://www.w3.org/2000/svg" role="img" aria-label="SUNVEX">
  <g transform="translate(-98.2692,-216.1923) scale(9.82692308)">
      <path d="M 10 22 L 55 22 L 122.5 139 L 100 178 Z" fill="#FFFFFF"/>
      <path d="M 118 22 L 190 22 L 154 84.4 Z" fill="#FFFFFF"/>
    </g>
  <g transform="translate(2535.3462,0)"><path d="M673.0 2007Q413.0 2007 258.5 1887.0Q104.0 1767 95.0 1546H358.0Q367.0 1664 456.0 1721.5Q545.0 1779 671.0 1779Q803.0 1779 886.5 1719.5Q970.0 1660 970.0 1564Q970.0 1477 896.0 1432.5Q822.0 1388 701.0 1357L532.0 1313Q345.0 1265 240.5 1168.0Q136.0 1071 136.0 913Q136.0 781 207.0 682.5Q278.0 584 401.0 529.0Q524.0 474 680.0 474Q839.0 474 958.5 529.0Q1078.0 584 1146.0 681.0Q1214.0 778 1217.0 902H958.0Q948.0 807 872.5 754.0Q797.0 701 676.0 701Q550.0 701 478.0 756.5Q406.0 812 406.0 897Q406.0 960 444.5 999.5Q483.0 1039 541.5 1063.0Q600.0 1087 660.0 1102L799.0 1138Q909.0 1165 1009.5 1215.5Q1110.0 1266 1173.5 1351.0Q1237.0 1436 1237.0 1566Q1237.0 1697 1170.0 1796.5Q1103.0 1896 977.0 1951.5Q851.0 2007 673.0 2007ZM2331.76 2006Q2149.76 2006 2013.7600000000002 1937.5Q1877.76 1869 1802.76 1747.5Q1727.76 1626 1727.76 1467V494H1994.76V1445Q1994.76 1585 2086.26 1676.0Q2177.76 1767 2331.76 1767Q2485.76 1767 2577.26 1676.0Q2668.76 1585 2668.76 1445V494H2935.76V1467Q2935.76 1626 2860.26 1747.5Q2784.76 1869 2648.76 1937.5Q2512.76 2006 2331.76 2006ZM3480.52 1984V494H3782.52L4297.52 1315Q4337.52 1379 4384.52 1464.5Q4431.52 1550 4480.52 1662Q4472.52 1554 4468.52 1449.0Q4464.52 1344 4464.52 1276V494H4735.52V1984H4432.52L3967.52 1245Q3928.52 1183 3894.02 1122.0Q3859.52 1061 3821.52 989.0Q3783.52 917 3733.52 820Q3740.52 958 3746.52 1070.0Q3752.52 1182 3752.52 1244V1984ZM5712.28 1984 5181.28 494H5474.28L5738.28 1268Q5770.28 1367 5805.78 1492.0Q5841.28 1617 5883.28 1771Q5962.28 1465 6024.28 1268L6280.28 494H6572.28L6050.28 1984ZM7017.04 1984V494H7985.04V719H7284.04V1121H7933.04V1343H7284.04V1759H7989.04V1984ZM8405.8 1984 8940.8 1222 8448.8 494H8757.8L8938.8 766Q8994.8 852 9027.3 913.5Q9059.8 975 9092.8 1040Q9125.8 976 9158.8 914.0Q9191.8 852 9248.8 766L9432.8 494H9734.8L9245.8 1213L9773.8 1984H9459.8L9233.8 1650Q9180.8 1570 9151.3 1518.5Q9121.8 1467 9089.8 1407Q9057.8 1466 9027.8 1518.0Q8997.8 1570 8942.8 1650L8712.8 1984Z" fill="#FFFFFF" transform="translate(-95.0000,-474.0000) scale(1.00000000)"/></g>
</svg>
