<svg xmlns="http://www.w3.org/2000/svg" viewBox="-20 -20 1344.88 196.00" role="img" aria-label="SUNVEX">
  <g transform="translate(-10, -22)">
    <path d="M 10 22 L 55 22 L 122.5 139 L 100 178 Z" fill="#FFFFFF"/>
    <path d="M 118 22 L 190 22 L 154 84.4 Z" fill="#FFFFFF"/>
  </g>
  <g transform="translate(258, 156)" fill="#FFFFFF"><path d="M673 -23Q500 -23 372.5 31.0Q245 85 173.0 188.0Q101 291 95 438H358Q365 360 407.0 308.0Q449 256 518.0 230.5Q587 205 671 205Q759 205 826.5 232.0Q894 259 932.0 307.5Q970 356 970 420Q970 478 936.5 516.0Q903 554 842.5 580.5Q782 607 701 627L532 671Q345 719 240.5 816.0Q136 913 136 1071Q136 1203 207.0 1302.0Q278 1401 401.0 1455.5Q524 1510 680 1510Q839 1510 959.0 1455.0Q1079 1400 1146.5 1303.0Q1214 1206 1217 1082H958Q948 1178 872.5 1230.5Q797 1283 676 1283Q592 1283 531.5 1257.5Q471 1232 438.5 1188.0Q406 1144 406 1087Q406 1025 444.5 985.0Q483 945 541.5 921.0Q600 897 660 882L799 846Q882 826 960.0 793.0Q1038 760 1100.5 709.5Q1163 659 1200.0 587.0Q1237 515 1237 418Q1237 287 1170.0 187.5Q1103 88 977.0 32.5Q851 -23 673 -23Z" transform="translate(0.0000,0) scale(0.106533,-0.106533)"/><path d="M754 -22Q572 -22 436.0 46.5Q300 115 225.0 236.5Q150 358 150 517V1490H417V539Q417 446 458.5 373.0Q500 300 575.5 258.5Q651 217 754 217Q857 217 932.5 258.5Q1008 300 1049.5 373.0Q1091 446 1091 539V1490H1358V517Q1358 358 1282.5 236.5Q1207 115 1071.5 46.5Q936 -22 754 -22Z" transform="translate(168.0838,0) scale(0.106533,-0.106533)"/><path d="M150 0V1490H452L967 669Q999 618 1035.0 553.5Q1071 489 1110.0 409.5Q1149 330 1187 233H1157Q1150 317 1144.5 405.5Q1139 494 1136.5 573.5Q1134 653 1134 708V1490H1405V0H1102L637 739Q593 810 554.0 879.0Q515 948 470.0 1035.0Q425 1122 361 1245H399Q405 1136 410.0 1038.5Q415 941 418.5 864.0Q422 787 422 740V0Z" transform="translate(354.8110,0) scale(0.106533,-0.106533)"/><path d="M581 0 50 1490H343L607 716Q644 600 687.0 448.5Q730 297 780 106H724Q774 300 815.5 450.0Q857 600 893 716L1149 1490H1441L919 0Z" transform="translate(546.6517,0) scale(0.106533,-0.106533)"/><path d="M150 0V1490H1118V1265H417V863H1066V641H417V225H1122V0Z" transform="translate(731.5678,0) scale(0.106533,-0.106533)"/><path d="M53 0 657 861V660L96 1490H405L586 1218Q632 1148 662.0 1094.0Q692 1040 717.0 989.5Q742 939 772 880H707Q738 939 763.0 989.0Q788 1039 818.5 1093.5Q849 1148 896 1218L1080 1490H1382L827 673V867L1421 0H1107L881 334Q840 397 813.5 441.0Q787 485 765.0 526.0Q743 567 714 621H760Q732 569 710.0 528.0Q688 487 661.0 442.0Q634 397 590 334L360 0Z" transform="translate(889.8505,0) scale(0.106533,-0.106533)"/></g>
</svg>
