<svg xmlns="http://www.w3.org/2000/svg" viewBox="-20 -20 1344.88 340.00" role="img" aria-label="SUNVEX — Mastering Complexity">
  <g transform="translate(-10, -22)">
    <path d="M 10 22 L 55 22 L 122.5 139 L 100 178 Z" fill="#FFFFFF"/>
    <path d="M 118 22 L 190 22 L 154 84.4 Z" fill="#FFFFFF"/>
  </g>
  <g transform="translate(258, 156)" fill="#FFFFFF"><path d="M673 -23Q500 -23 372.5 31.0Q245 85 173.0 188.0Q101 291 95 438H358Q365 360 407.0 308.0Q449 256 518.0 230.5Q587 205 671 205Q759 205 826.5 232.0Q894 259 932.0 307.5Q970 356 970 420Q970 478 936.5 516.0Q903 554 842.5 580.5Q782 607 701 627L532 671Q345 719 240.5 816.0Q136 913 136 1071Q136 1203 207.0 1302.0Q278 1401 401.0 1455.5Q524 1510 680 1510Q839 1510 959.0 1455.0Q1079 1400 1146.5 1303.0Q1214 1206 1217 1082H958Q948 1178 872.5 1230.5Q797 1283 676 1283Q592 1283 531.5 1257.5Q471 1232 438.5 1188.0Q406 1144 406 1087Q406 1025 444.5 985.0Q483 945 541.5 921.0Q600 897 660 882L799 846Q882 826 960.0 793.0Q1038 760 1100.5 709.5Q1163 659 1200.0 587.0Q1237 515 1237 418Q1237 287 1170.0 187.5Q1103 88 977.0 32.5Q851 -23 673 -23Z" transform="translate(0.0000,0) scale(0.106533,-0.106533)"/><path d="M754 -22Q572 -22 436.0 46.5Q300 115 225.0 236.5Q150 358 150 517V1490H417V539Q417 446 458.5 373.0Q500 300 575.5 258.5Q651 217 754 217Q857 217 932.5 258.5Q1008 300 1049.5 373.0Q1091 446 1091 539V1490H1358V517Q1358 358 1282.5 236.5Q1207 115 1071.5 46.5Q936 -22 754 -22Z" transform="translate(168.0838,0) scale(0.106533,-0.106533)"/><path d="M150 0V1490H452L967 669Q999 618 1035.0 553.5Q1071 489 1110.0 409.5Q1149 330 1187 233H1157Q1150 317 1144.5 405.5Q1139 494 1136.5 573.5Q1134 653 1134 708V1490H1405V0H1102L637 739Q593 810 554.0 879.0Q515 948 470.0 1035.0Q425 1122 361 1245H399Q405 1136 410.0 1038.5Q415 941 418.5 864.0Q422 787 422 740V0Z" transform="translate(354.8110,0) scale(0.106533,-0.106533)"/><path d="M581 0 50 1490H343L607 716Q644 600 687.0 448.5Q730 297 780 106H724Q774 300 815.5 450.0Q857 600 893 716L1149 1490H1441L919 0Z" transform="translate(546.6517,0) scale(0.106533,-0.106533)"/><path d="M150 0V1490H1118V1265H417V863H1066V641H417V225H1122V0Z" transform="translate(731.5678,0) scale(0.106533,-0.106533)"/><path d="M53 0 657 861V660L96 1490H405L586 1218Q632 1148 662.0 1094.0Q692 1040 717.0 989.5Q742 939 772 880H707Q738 939 763.0 989.0Q788 1039 818.5 1093.5Q849 1148 896 1218L1080 1490H1382L827 673V867L1421 0H1107L881 334Q840 397 813.5 441.0Q787 485 765.0 526.0Q743 567 714 621H760Q732 569 710.0 528.0Q688 487 661.0 442.0Q634 397 590 334L360 0Z" transform="translate(889.8505,0) scale(0.106533,-0.106533)"/></g>
  <line x1="572.44" y1="220" x2="732.44" y2="220" stroke="#C9A463" stroke-width="2.5"/>
  <g transform="translate(203.28, 278)" fill="#FFFFFF"><path d="M180 0V1490H450L817 550Q830 517 846.5 467.5Q863 418 881.5 360.0Q900 302 917.0 244.5Q934 187 947 138H905Q919 184 936.0 240.5Q953 297 971.5 355.5Q990 414 1007.0 465.0Q1024 516 1037 550L1399 1490H1670V0H1483V851Q1483 897 1483.5 956.0Q1484 1015 1485.5 1080.0Q1487 1145 1488.5 1212.0Q1490 1279 1491 1342H1507Q1486 1273 1462.5 1201.5Q1439 1130 1416.5 1063.5Q1394 997 1374.0 942.0Q1354 887 1340 851L1007 0H842L504 851Q490 886 471.0 939.5Q452 993 429.5 1058.5Q407 1124 383.0 1196.5Q359 1269 334 1342H352Q354 1286 355.5 1221.0Q357 1156 358.0 1089.5Q359 1023 360.0 961.5Q361 900 361 851V0Z" transform="translate(0.0000,0) scale(0.026660,-0.026660)"/><path d="M52 0 593 1490H813L1361 0H1161L845 884Q816 966 777.5 1088.5Q739 1211 684 1401H720Q666 1209 626.5 1084.5Q587 960 561 884L254 0ZM324 416V582H1089V416Z" transform="translate(60.2413,0) scale(0.026660,-0.026660)"/><path d="M657 -26Q496 -26 377.5 26.0Q259 78 192.0 171.5Q125 265 116 390H311Q319 306 368.0 251.5Q417 197 493.5 170.5Q570 144 657 144Q758 144 838.5 177.0Q919 210 966.0 270.0Q1013 330 1013 409Q1013 481 972.5 526.0Q932 571 865.0 600.0Q798 629 718 651L538 702Q358 753 258.0 848.0Q158 943 158 1091Q158 1217 226.0 1311.5Q294 1406 410.0 1458.0Q526 1510 670 1510Q817 1510 930.0 1458.0Q1043 1406 1108.5 1316.5Q1174 1227 1178 1114H992Q979 1223 888.0 1282.5Q797 1342 664 1342Q568 1342 495.5 1310.5Q423 1279 383.0 1224.5Q343 1170 343 1100Q343 1022 391.5 974.5Q440 927 506.5 900.5Q573 874 627 859L776 818Q836 802 908.5 774.0Q981 746 1047.0 699.5Q1113 653 1155.5 581.5Q1198 510 1198 406Q1198 284 1134.5 186.0Q1071 88 950.0 31.0Q829 -26 657 -26Z" transform="translate(108.8321,0) scale(0.026660,-0.026660)"/><path d="M98 1322V1490H1224V1322H757V0H567V1322Z" transform="translate(154.7835,0) scale(0.026660,-0.026660)"/><path d="M180 0V1490H1088V1322H370V836H1039V668H370V168H1097V0Z" transform="translate(200.9483,0) scale(0.026660,-0.026660)"/><path d="M180 0V1490H690Q864 1490 976.5 1430.5Q1089 1371 1143.5 1267.0Q1198 1163 1198 1030Q1198 897 1143.5 795.0Q1089 693 977.0 635.5Q865 578 691 578H286V747H682Q800 747 871.5 781.5Q943 816 976.0 879.5Q1009 943 1009 1030Q1009 1119 976.0 1184.5Q943 1250 871.0 1286.5Q799 1323 680 1323H370V0ZM1036 0 676 671H890L1256 0Z" transform="translate(244.6869,0) scale(0.026660,-0.026660)"/><path d="M370 1490V0H180V1490Z" transform="translate(290.7450,0) scale(0.026660,-0.026660)"/><path d="M180 0V1490H404L1010 537Q1034 500 1068.0 442.0Q1102 384 1141.5 311.0Q1181 238 1219 155H1192Q1183 241 1179.0 319.5Q1175 398 1174.0 464.0Q1173 530 1173 576V1490H1363V0H1137L597 848Q560 907 522.5 969.5Q485 1032 437.0 1117.5Q389 1203 318 1329H353Q358 1218 362.0 1124.0Q366 1030 368.5 960.0Q371 890 371 850V0Z" transform="translate(316.3281,0) scale(0.026660,-0.026660)"/><path d="M789 -20Q590 -20 440.0 73.0Q290 166 206.0 337.5Q122 509 122 744Q122 981 206.0 1152.5Q290 1324 438.0 1417.0Q586 1510 777 1510Q895 1510 997.5 1475.0Q1100 1440 1181.0 1375.0Q1262 1310 1315.5 1220.5Q1369 1131 1389 1023H1193Q1170 1095 1132.0 1152.0Q1094 1209 1041.5 1250.0Q989 1291 923.0 1312.5Q857 1334 778 1334Q647 1334 540.0 1266.5Q433 1199 370.0 1067.5Q307 936 307 744Q307 554 370.5 423.0Q434 292 543.0 224.0Q652 156 789 156Q915 156 1011.0 209.5Q1107 263 1160.5 361.5Q1214 460 1214 594L1271 583H828V749H1400V586Q1400 401 1321.0 265.0Q1242 129 1104.5 54.5Q967 -20 789 -20Z" transform="translate(368.3847,0) scale(0.026660,-0.026660)"/><path d="M783 -20Q592 -20 442.5 72.5Q293 165 207.5 336.5Q122 508 122 744Q122 981 207.5 1152.5Q293 1324 442.5 1417.0Q592 1510 783 1510Q896 1510 996.5 1477.0Q1097 1444 1177.0 1380.5Q1257 1317 1310.5 1226.5Q1364 1136 1384 1021H1194Q1178 1098 1139.5 1156.0Q1101 1214 1045.5 1254.0Q990 1294 923.0 1314.0Q856 1334 783 1334Q649 1334 541.0 1266.0Q433 1198 370.0 1066.5Q307 935 307 744Q307 554 370.5 422.5Q434 291 542.0 223.5Q650 156 783 156Q856 156 923.0 176.5Q990 197 1045.5 236.5Q1101 276 1139.5 334.5Q1178 393 1194 469H1384Q1365 355 1311.5 265.0Q1258 175 1178.0 111.0Q1098 47 997.5 13.5Q897 -20 783 -20Z" transform="translate(446.3177,0) scale(0.026660,-0.026660)"/><path d="M784 -20Q593 -20 443.5 72.5Q294 165 208.0 336.5Q122 508 122 744Q122 981 208.0 1152.5Q294 1324 443.5 1417.0Q593 1510 784 1510Q975 1510 1124.0 1417.0Q1273 1324 1358.5 1152.5Q1444 981 1444 744Q1444 508 1358.5 336.5Q1273 165 1124.0 72.5Q975 -20 784 -20ZM784 156Q917 156 1024.5 223.5Q1132 291 1195.5 422.5Q1259 554 1259 744Q1259 936 1195.5 1067.5Q1132 1199 1024.5 1266.5Q917 1334 784 1334Q650 1334 542.0 1266.0Q434 1198 370.5 1066.5Q307 935 307 744Q307 554 370.5 423.0Q434 292 542.0 224.0Q650 156 784 156Z" transform="translate(497.1213,0) scale(0.026660,-0.026660)"/><path d="M180 0V1490H450L817 550Q830 517 846.5 467.5Q863 418 881.5 360.0Q900 302 917.0 244.5Q934 187 947 138H905Q919 184 936.0 240.5Q953 297 971.5 355.5Q990 414 1007.0 465.0Q1024 516 1037 550L1399 1490H1670V0H1483V851Q1483 897 1483.5 956.0Q1484 1015 1485.5 1080.0Q1487 1145 1488.5 1212.0Q1490 1279 1491 1342H1507Q1486 1273 1462.5 1201.5Q1439 1130 1416.5 1063.5Q1394 997 1374.0 942.0Q1354 887 1340 851L1007 0H842L504 851Q490 886 471.0 939.5Q452 993 429.5 1058.5Q407 1124 383.0 1196.5Q359 1269 334 1342H352Q354 1286 355.5 1221.0Q357 1156 358.0 1089.5Q359 1023 360.0 961.5Q361 900 361 851V0Z" transform="translate(549.7911,0) scale(0.026660,-0.026660)"/><path d="M180 0V1490H690Q864 1490 976.5 1426.5Q1089 1363 1143.5 1256.0Q1198 1149 1198 1016Q1198 883 1143.5 775.0Q1089 667 977.0 603.0Q865 539 691 539H330V706H682Q800 706 872.0 746.5Q944 787 976.5 857.5Q1009 928 1009 1016Q1009 1104 976.5 1173.5Q944 1243 871.5 1283.0Q799 1323 680 1323H370V0Z" transform="translate(610.0324,0) scale(0.026660,-0.026660)"/><path d="M180 0V1490H370V168H1060V0Z" transform="translate(655.8238,0) scale(0.026660,-0.026660)"/><path d="M180 0V1490H1088V1322H370V836H1039V668H370V168H1097V0Z" transform="translate(697.6163,0) scale(0.026660,-0.026660)"/><path d="M57 0 640 833V692L90 1490H310L525 1174Q573 1104 603.5 1056.0Q634 1008 659.5 962.0Q685 916 717 852H684Q716 915 741.5 961.0Q767 1007 798.5 1055.5Q830 1104 878 1174L1097 1490H1312L763 700V840L1340 0H1121L860 378Q818 440 789.0 484.5Q760 529 735.0 573.5Q710 618 679 680H720Q690 621 664.5 576.5Q639 532 609.5 486.5Q580 441 536 378L273 0Z" transform="translate(741.3550,0) scale(0.026660,-0.026660)"/><path d="M370 1490V0H180V1490Z" transform="translate(789.5192,0) scale(0.026660,-0.026660)"/><path d="M98 1322V1490H1224V1322H757V0H567V1322Z" transform="translate(815.1023,0) scale(0.026660,-0.026660)"/><path d="M600 0V610L52 1490H272L567 1009Q617 928 655.5 854.5Q694 781 735 669H659Q700 783 739.0 857.5Q778 932 825 1009L1119 1490H1338L790 610V0Z" transform="translate(861.2670,0) scale(0.026660,-0.026660)"/></g>
</svg>
